<svg xmlns="http://www.w3.org/2000/svg" viewBox="0 0 64 64" fill="none">
  <rect width="64" height="64" rx="16" fill="#FFF4EE"/>
  <path d="M17 27c0-7.7 6.3-14 14-14h2c7.7 0 14 6.3 14 14v8c0 8.8-7.2 16-16 16S17 43.8 17 35v-8Z" fill="#FF7A45"/>
  <path d="M23 19c-4 0-7-3.1-7-7 4.9.2 8 2.9 9 6.5M41 19c4 0 7-3.1 7-7-4.9.2-8 2.9-9 6.5" stroke="#D94F1A" stroke-width="4" stroke-linecap="round"/>
  <circle cx="27" cy="30" r="2.5" fill="#3B2416"/>
  <circle cx="37" cy="30" r="2.5" fill="#3B2416"/>
  <path d="M27 39c3.3 2 6.7 2 10 0" stroke="#FFFFFF" stroke-width="3.5" stroke-linecap="round"/>
  <path d="M19 33l-7-4M45 33l7-4M20 41l-6 6M44 41l6 6" stroke="#D94F1A" stroke-width="4" stroke-linecap="round"/>
  <path d="M30 13h4" stroke="#FFFFFF" stroke-width="3" stroke-linecap="round"/>
</svg>